<?xml version="1.0" encoding="UTF-8" standalone="no"?>
<!-- Created with Inkscape (http://www.inkscape.org/) -->

<svg
   version="1.1"
   id="svg1"
   width="314"
   height="300"
   viewBox="0 0 314 300"
   sodipodi:docname="logo-dark.svg"
   inkscape:version="1.4.2 (ebf0e940d0, 2025-05-08)"
   xmlns:inkscape="http://www.inkscape.org/namespaces/inkscape"
   xmlns:sodipodi="http://sodipodi.sourceforge.net/DTD/sodipodi-0.dtd"
   xmlns="http://www.w3.org/2000/svg"
   xmlns:svg="http://www.w3.org/2000/svg">
  <defs
     id="defs1" />
  <sodipodi:namedview
     id="namedview1"
     pagecolor="#ffffff"
     bordercolor="#000000"
     borderopacity="0.25"
     inkscape:showpageshadow="2"
     inkscape:pageopacity="0.0"
     inkscape:pagecheckerboard="0"
     inkscape:deskcolor="#d1d1d1"
     inkscape:zoom="1.2610822"
     inkscape:cx="72.160245"
     inkscape:cy="162.95528"
     inkscape:window-width="1078"
     inkscape:window-height="1038"
     inkscape:window-x="0"
     inkscape:window-y="0"
     inkscape:window-maximized="1"
     inkscape:current-layer="g1" />
  <g
     inkscape:groupmode="layer"
     inkscape:label="Image"
     id="g1">
    <path
       style="fill:#ffffff;fill-opacity:1;stroke-width:4;stroke:none;stroke-opacity:1;stroke-dasharray:none"
       d="M 116.62766,282.36606 C 84.180316,279.76036 63.586817,270.94408 49.615968,253.67774 8.6034753,202.99109 56.171474,134.25293 124.31481,145.73416 c 73.04141,12.30651 108.2648,-78.53919 48.20934,-124.338078 -6.85334,-5.226431 -4.92673,-5.217374 7.00307,0.03292 39.55054,17.406149 66.59333,52.345071 73.66716,95.176988 1.64,9.93015 1.64,9.93015 18.88992,39.92267 20.98904,36.49374 19.49978,33.58967 19.49978,38.02479 0,9.00859 -3.98758,10.46313 -28.68454,10.46313 -21.88623,0 -21.88623,0 -24.70011,5.74856 -1.54762,3.16172 -5.24045,9.47562 -8.20627,14.03092 -5.3924,8.28235 -5.3924,8.28235 -5.40884,25.99352 -0.0288,31.00394 2.11199,29.76088 -52.68267,30.59035 -22.97754,0.34782 -43.80185,0.7933 -46.27623,0.98992 -2.47439,0.19663 -6.52337,0.19492 -8.99776,-0.004 z m -4.87611,-46.37462 c 12.50621,-3.47386 20.03722,-20.89322 14.0807,-32.56895 -10.90819,-21.38182 -42.06773,-16.23402 -44.858754,7.41103 -1.992714,16.88182 13.875922,29.85283 30.778054,25.15792 z M 129.54914,98.494145 c -15.79817,-4.86747 -20.52106,-25.994636 -8.43495,-37.732513 17.95471,-17.437391 46.68344,3.174553 36.10121,25.901463 -4.951,10.632979 -16.09183,15.397185 -27.66626,11.83105 z"
       id="path1" />
  </g>
</svg>
